<?xml version="1.0" standalone="no"?><!DOCTYPE svg PUBLIC "-//W3C//DTD SVG 1.1//EN" "http://www.w3.org/Graphics/SVG/1.1/DTD/svg11.dtd"><svg t="1502438393354" class="icon" style="" viewBox="0 0 1863 1024" version="1.1" xmlns="http://www.w3.org/2000/svg" p-id="1860" xmlns:xlink="http://www.w3.org/1999/xlink" width="232.875" height="128"><defs><style type="text/css"></style></defs><path d="M451.4304 646.4l263.9872 0 0 71.9872-263.9872 0 0-71.9872Z" p-id="1861" fill="#d81e06"></path><path d="M451.4304 449.5872l235.2128 0 0 62.4128-235.2128 0 0-62.4128Z" p-id="1862" fill="#d81e06"></path><path d="M1642.1632 109.5936l-1433.6 0c-56.5504 0-102.4 45.8496-102.4 102.4l0 614.4c0 56.5504 45.8496 102.4 102.4 102.4l1433.6 0c56.5504 0 102.4-45.8496 102.4-102.4l0-614.4C1744.5632 155.4432 1698.7136 109.5936 1642.1632 109.5936zM1215.7696 228.8128c17.6128 27.2128 35.1744 56.8064 52.7872 88.8064-16 6.4-32.0256 15.232-48 26.3936-14.3872-32-30.4128-61.568-48-88.8064C1186.9696 247.2192 1201.3824 238.3872 1215.7696 228.8128zM715.4176 795.1872l0-35.9936L453.8368 759.1936l0 35.9936-55.1936 0c1.5872-36.8128 2.4064-100.8128 2.4064-192s-0.8192-156.0064-2.4064-194.4064L737.024 408.7808c-1.5872 30.4128-2.4064 56.0128-2.4064 76.8 0 19.2 0.7936 40.8064 2.4064 64.7936L451.4304 550.3744l0 57.6 314.3936 0 0 91.1872c0 33.5872 0.7936 65.5872 2.4064 96L715.4176 795.1616zM825.8304 411.1872 775.424 411.1872l0-57.6L360.2176 353.5872l0 57.6-50.4064 0c1.5872-12.8 2.4064-27.1872 2.4064-43.2128 0-15.9744-0.8192-33.5872-2.4064-52.7872l240 0c-12.8256-24.0128-27.2128-45.5936-43.2128-64.7936 9.6-6.3744 23.168-15.1808 40.8064-26.3936 22.4 25.6 39.9872 48.8192 52.7872 69.6064-17.6128 9.6-31.2064 16.7936-40.8064 21.6064l266.3936 0c-1.5872 22.4256-2.4064 39.2192-2.4064 50.4064C823.424 376.8064 824.2176 391.9872 825.8304 411.1872zM1501.3632 401.6128c-20.7872-1.5872-49.6128-2.4064-86.4-2.4064l-247.1936 0c0 17.6128-0.8192 49.6128-2.4064 96l268.8 0c-3.2256 20.8128-6.4 51.2256-9.6 91.1872l-14.3872 131.9936c-3.2256 28.8-16.7936 47.5904-40.8064 56.3968-24.0128 8.7808-59.1872 15.5904-105.6 20.4032-1.5872-20.7872-8.0128-39.2192-19.2-55.1936 36.8128 1.5872 64.7936 0 83.9936-4.8128s31.2064-18.3808 35.9936-40.8064l14.3872-156.0064-216.0128 0c-6.4 44.8-16.4352 82.432-30.0032 112.7936-13.5936 30.4128-32.4096 58.4192-56.3968 83.9936s-48 48-71.9872 67.2c-6.4-9.6-20.7872-20.7872-43.2128-33.5872 20.7872-11.2128 42.8032-28.8 65.9968-52.7872 23.168-24.0128 42.368-51.2 57.6-81.6128 15.2064-30.3872 24.8064-63.9744 28.8-100.8128 3.968-36.7872 5.9904-81.6128 5.9904-134.4l-67.2 0c-35.2 0-64 0.8192-86.4 2.4064l0-48c25.5744 1.6128 53.6064 2.4064 83.9936 2.4064l357.6064 0c38.4 0 69.6064-0.7936 93.5936-2.4064L1501.312 401.6128z" p-id="1863" fill="#d81e06"></path></svg>